<?xml version="1.0" standalone="no"?>
<!DOCTYPE svg PUBLIC "-//W3C//DTD SVG 20010904//EN"
 "http://www.w3.org/TR/2001/REC-SVG-20010904/DTD/svg10.dtd">
<svg version="1.0" xmlns="http://www.w3.org/2000/svg"
 width="301.000000pt" height="301.000000pt" viewBox="0 0 301.000000 301.000000"
 preserveAspectRatio="xMidYMid meet">
<metadata>
Created by potrace 1.14, written by Peter Selinger 2001-2017
</metadata>
<g transform="translate(0.000000,301.000000) scale(0.100000,-0.100000)"
fill="#000000" stroke="none">
<path d="M154 2446 c-45 -20 -102 -81 -126 -135 -29 -64 -30 -179 -1 -242 53
-118 173 -166 293 -119 49 19 55 20 66 6 6 -9 14 -16 18 -16 3 0 6 41 6 90 0
94 -12 116 -29 54 -26 -93 -103 -148 -174 -125 -42 14 -63 53 -75 138 -10 71
-5 193 9 247 13 49 59 96 94 96 59 0 120 -56 145 -133 18 -56 30 -35 30 53 0
80 -8 101 -30 75 -10 -12 -18 -11 -61 5 -57 23 -121 25 -165 6z"/>
<path d="M2248 2376 c-14 -31 -5 -53 27 -68 21 -9 28 -8 45 7 39 35 20 85 -32
85 -20 0 -32 -7 -40 -24z"/>
<path d="M565 2260 c-65 -15 -98 -53 -82 -95 8 -20 54 -30 72 -15 19 16 19 59
0 66 -27 11 -5 24 40 24 51 0 61 -12 64 -75 2 -40 1 -41 -36 -43 -116 -8 -157
-29 -167 -86 -15 -81 82 -131 169 -86 33 17 40 18 47 6 11 -20 59 -29 91 -17
31 12 54 48 39 63 -7 7 -12 3 -17 -11 -6 -20 -24 -29 -26 -13 -1 4 -2 53 -3
109 -2 62 -8 113 -16 128 -19 36 -112 60 -175 45z m91 -217 c-4 -59 -21 -83
-57 -83 -31 0 -46 37 -40 103 1 20 33 35 73 36 28 1 28 1 24 -56z"/>
<path d="M1020 2263 c-8 -3 -25 -15 -37 -26 -22 -20 -23 -20 -23 -1 0 17 -7
19 -67 18 -84 -2 -83 -2 -83 -14 0 -5 11 -10 25 -10 l26 0 -3 -132 c-3 -129
-4 -133 -25 -136 -13 -2 -23 -8 -23 -13 0 -5 49 -9 110 -9 62 0 110 4 110 9 0
6 -15 11 -32 13 l-33 3 -3 70 c-4 94 5 149 29 177 14 15 19 17 16 7 -14 -44
53 -77 87 -43 46 46 -9 111 -74 87z"/>
<path d="M1340 2259 c-14 -6 -35 -20 -48 -32 -13 -12 -23 -17 -22 -12 9 41 2
45 -75 45 -74 0 -99 -12 -50 -24 l25 -6 0 -136 c0 -114 -2 -135 -14 -131 -8 3
-20 -1 -26 -9 -11 -12 1 -14 83 -14 53 0 99 4 102 10 3 6 -4 10 -18 10 -24 0
-24 1 -22 93 1 50 3 99 4 108 2 30 56 79 79 72 27 -7 33 -39 30 -168 -2 -78
-6 -100 -17 -100 -8 0 -16 -6 -18 -12 -4 -10 19 -13 91 -13 57 0 96 4 96 10 0
6 -11 10 -25 10 l-25 0 0 110 c0 61 0 112 0 115 1 22 -35 65 -61 74 -38 13
-56 13 -89 0z"/>
<path d="M1634 2251 c-126 -57 -134 -239 -13 -299 48 -24 116 -23 155 2 26 18
64 72 64 94 0 19 -18 14 -25 -8 -4 -11 -18 -34 -32 -50 -20 -24 -33 -30 -63
-30 -34 0 -68 18 -71 38 0 4 -2 31 -4 60 l-4 52 52 1 c29 0 74 0 100 -1 l49
-2 -7 34 c-21 95 -116 147 -201 109z m85 -25 c7 -8 11 -32 9 -52 -3 -36 -5
-38 -40 -39 -45 -2 -55 17 -38 70 9 27 17 35 35 35 12 0 28 -6 34 -14z"/>
<path d="M1939 2254 c-46 -20 -69 -51 -69 -97 0 -27 7 -45 24 -61 l23 -24 -23
-11 c-40 -18 -49 -109 -12 -132 6 -4 -1 -17 -16 -32 -60 -60 -6 -135 103 -141
104 -6 175 55 176 152 0 46 -4 57 -27 77 -23 19 -38 23 -119 24 -51 1 -96 4
-98 7 -3 3 0 13 5 22 8 12 25 17 60 18 27 0 64 4 81 8 58 13 90 86 62 138 -8
14 -8 23 0 31 8 8 11 7 11 -5 0 -22 24 -40 44 -32 11 4 16 15 14 33 -2 21 -9
27 -36 29 -18 2 -40 -2 -48 -9 -10 -8 -18 -8 -27 -1 -21 18 -91 21 -128 6z
m88 -26 c10 -18 12 -109 2 -129 -12 -23 -46 -30 -61 -12 -14 18 -19 111 -6
136 10 20 53 23 65 5z m77 -327 c24 -20 -1 -79 -43 -104 -35 -20 -100 -28
-126 -14 -45 23 -58 74 -30 114 14 20 23 22 99 20 49 -2 91 -8 100 -16z"/>
<path d="M2504 2259 c-18 -5 -48 -27 -67 -48 -73 -81 -56 -210 33 -256 79 -41
159 -24 202 44 32 51 34 61 14 61 -8 0 -17 -12 -20 -26 -11 -41 -50 -74 -89
-74 -54 0 -70 19 -75 89 l-4 61 53 1 c145 2 144 2 141 29 -12 83 -106 142
-188 119z m80 -67 c11 -50 3 -59 -47 -57 -28 1 -32 5 -35 33 -5 46 14 74 46
70 23 -3 28 -10 36 -46z"/>
<path d="M2205 2250 c-6 -10 -5 -12 18 -14 9 -1 13 -37 15 -138 l3 -138 -26 0
c-14 0 -25 -4 -25 -10 0 -6 40 -10 100 -10 60 0 100 4 100 10 0 6 -11 10 -25
10 l-25 0 0 150 0 150 -64 0 c-36 0 -68 -4 -71 -10z"/>
<path d="M3 1816 c2 -6 9 -12 15 -12 7 -1 17 -2 22 -3 7 -1 9 -76 8 -218 -3
-215 -3 -218 -26 -228 -37 -17 -18 -30 43 -30 38 0 60 4 62 13 3 7 -4 12 -16
12 -11 0 -24 8 -29 18 -12 21 -12 413 0 406 4 -3 8 -10 8 -16 0 -7 13 -48 29
-92 16 -45 51 -140 76 -213 29 -79 52 -130 59 -127 9 4 90 222 146 396 8 26
17 48 20 48 3 0 5 -94 5 -210 l0 -210 -22 0 c-13 0 -23 -6 -23 -13 0 -15 189
-18 192 -2 2 6 -7 11 -20 13 l-22 3 2 227 c2 173 6 227 16 228 6 1 17 2 23 3
5 0 8 5 5 10 -3 5 -42 9 -85 10 l-79 1 -48 -138 c-26 -75 -52 -150 -58 -165
-10 -26 -15 -16 -67 135 l-56 163 -92 1 c-65 1 -91 -2 -88 -10z"/>
<path d="M884 1819 c-6 -11 8 -17 29 -14 16 3 17 -13 17 -226 l0 -229 -25 0
c-14 0 -25 -4 -25 -10 0 -13 -3 -12 108 -15 71 -1 92 1 92 12 0 7 -11 13 -24
13 l-23 0 -1 218 c0 119 0 226 -1 237 -1 19 -8 20 -72 21 -39 0 -72 -4 -75 -7z"/>
<path d="M1102 1822 c-22 -7 -12 -20 13 -17 l25 2 0 -228 0 -229 -25 0 c-14 0
-25 -4 -25 -10 0 -13 -3 -12 108 -14 70 -2 92 1 92 11 0 7 -11 13 -24 13 l-23
0 -1 223 c0 122 -1 229 -1 237 -1 12 -15 15 -64 16 -35 0 -69 -2 -75 -4z"/>
<path d="M690 1643 c-63 -25 -110 -95 -110 -163 0 -53 32 -114 74 -140 54 -33
144 -26 186 15 35 34 56 85 35 85 -8 0 -17 -11 -21 -25 -13 -51 -92 -92 -130
-67 -21 14 -34 51 -34 99 l0 49 90 1 c50 0 95 4 100 9 13 13 -28 93 -60 116
-26 19 -105 32 -130 21z m82 -51 c1 -19 1 -53 -1 -64 0 -5 -19 -8 -41 -8 -40
0 -40 0 -40 38 0 20 4 42 8 48 19 29 71 19 74 -14z"/>
<path d="M1388 1636 c-121 -52 -136 -223 -25 -293 34 -22 49 -25 103 -21 43 3
73 10 91 24 34 25 73 98 73 138 0 47 -37 113 -78 138 -42 26 -121 32 -164 14z
m109 -29 c12 -12 19 -116 14 -209 -3 -57 -67 -79 -97 -33 -24 37 -17 231 9
250 21 15 55 12 74 -8z"/>
<path d="M1840 1643 c-8 -3 -27 -15 -42 -25 -28 -19 -28 -19 -28 1 0 19 -6 21
-75 21 -43 0 -75 -4 -75 -10 0 -5 11 -10 25 -10 l25 0 0 -135 0 -135 -25 0
c-16 0 -23 -5 -19 -13 6 -16 190 -18 187 -2 -1 6 -11 11 -21 13 -18 3 -20 12
-20 97 0 104 16 145 64 167 43 20 51 -4 51 -142 0 -110 -1 -120 -18 -120 -11
0 -19 -6 -19 -13 0 -16 179 -18 183 -2 1 6 -8 11 -20 13 -20 3 -22 9 -25 128
-3 124 -3 126 -31 150 -27 23 -79 31 -117 17z"/>
<path d="M5 1221 c-12 -11 -3 -21 20 -21 l25 0 0 -174 c0 -181 6 -214 43 -254
38 -41 77 -56 152 -56 88 -1 133 20 164 75 21 36 23 53 24 220 1 140 4 182 14
185 40 12 45 15 39 21 -3 4 -33 7 -66 9 -45 1 -60 -2 -60 -12 0 -8 9 -14 19
-14 11 0 22 -8 25 -17 9 -33 0 -348 -11 -373 -20 -47 -51 -65 -108 -65 -43 0
-59 5 -79 24 -38 36 -45 76 -47 261 -1 153 0 165 18 168 21 5 42 21 27 23 -33
4 -195 4 -199 0z"/>
<path d="M980 1182 c-19 -5 -40 -32 -40 -49 0 -7 9 -22 20 -33 16 -16 24 -18
47 -9 36 14 43 26 31 59 -9 29 -31 40 -58 32z"/>
<path d="M2348 1182 c-9 -2 -21 -16 -26 -32 -8 -23 -7 -32 8 -48 11 -11 27
-19 37 -17 10 2 21 4 26 4 4 1 12 12 18 25 19 41 -15 79 -63 68z"/>
<path d="M2580 1175 c0 -10 -10 -39 -21 -63 -17 -35 -32 -49 -67 -64 -32 -14
-41 -23 -31 -28 7 -5 17 -6 21 -4 10 6 10 6 12 -139 2 -105 4 -120 23 -139 30
-29 95 -29 128 2 27 26 23 50 -4 26 -21 -19 -41 -21 -42 -3 -7 68 -2 247 6
250 5 2 27 3 49 3 l38 -2 64 -151 64 -151 -23 -50 c-23 -49 -24 -50 -40 -31
-32 36 -87 13 -87 -36 0 -43 72 -62 103 -27 9 10 36 65 60 123 24 57 54 125
66 151 11 26 21 50 21 53 0 21 54 115 66 115 8 0 14 7 14 15 0 12 -13 15 -55
15 -42 0 -55 -3 -55 -15 0 -8 3 -14 8 -14 40 7 41 -10 5 -97 l-27 -66 -29 63
c-48 108 -49 108 -26 104 11 -2 19 2 19 10 0 12 -25 15 -122 17 l-122 3 -1 67
c0 36 -3 70 -8 74 -4 4 -7 -1 -7 -11z"/>
<path d="M675 1035 c-16 -9 -36 -23 -42 -32 -11 -15 -13 -14 -13 10 0 27 0 27
-75 27 -60 0 -75 -3 -75 -15 0 -11 7 -14 23 -11 l24 4 0 -134 c0 -133 -1 -139
-34 -135 -7 1 -13 -5 -13 -13 0 -11 19 -15 96 -15 72 -1 95 2 91 12 -2 6 -10
12 -18 12 -11 0 -15 22 -17 100 -2 98 -2 101 28 137 16 20 36 35 42 34 35 -5
38 -17 38 -140 0 -115 -1 -124 -20 -129 -11 -3 -20 -10 -20 -15 0 -7 37 -11
96 -11 71 0 94 3 91 12 -2 7 -12 12 -22 12 -17 0 -19 10 -20 115 -1 63 -5 125
-9 137 -8 24 -61 53 -98 53 -12 0 -36 -7 -53 -15z"/>
<path d="M1515 1042 c-30 -6 -83 -49 -99 -80 -42 -82 -19 -177 57 -227 37 -24
126 -25 161 -1 42 27 84 106 57 106 -5 0 -14 -14 -21 -30 -26 -63 -107 -92
-143 -52 -16 17 -30 104 -21 127 3 7 41 10 99 10 104 -1 106 0 81 59 -26 62
-105 102 -171 88z m64 -36 c7 -8 11 -32 9 -52 -3 -33 -6 -38 -28 -37 -57 1
-57 1 -53 41 2 20 5 43 8 50 6 17 50 15 64 -2z"/>
<path d="M1881 1024 c-28 -23 -32 -25 -29 -8 3 17 -4 19 -66 22 -39 2 -74 -2
-80 -8 -7 -7 -6 -10 2 -11 7 -1 17 -3 22 -4 6 -1 13 -3 18 -4 6 -1 9 -210 3
-258 0 -7 -9 -12 -18 -10 -10 1 -20 -2 -23 -8 -3 -6 35 -11 103 -13 85 -2 108
0 105 10 -3 7 -14 14 -26 14 -12 1 -26 2 -30 3 -12 2 -6 192 6 223 16 38 29
42 35 8 10 -50 87 -51 100 -1 16 64 -64 94 -122 45z"/>
<path d="M2084 1040 c-65 -26 -87 -130 -38 -175 15 -14 32 -25 38 -25 32 -1
93 -13 109 -21 18 -10 22 -36 9 -57 -5 -7 -25 -15 -45 -19 -46 -7 -81 14 -104
62 -9 19 -20 35 -25 35 -10 0 -11 -114 -1 -123 3 -4 12 -2 20 4 9 8 25 8 54 1
81 -21 159 35 159 114 0 53 -34 82 -114 99 -38 7 -73 18 -79 24 -18 18 8 58
41 63 43 6 70 -7 93 -47 28 -48 39 -44 38 13 -2 57 -7 66 -25 51 -7 -6 -21 -8
-31 -5 -31 12 -78 15 -99 6z"/>
<path d="M896 1031 c-8 -12 4 -19 27 -16 18 3 18 -5 18 -200 0 -25 0 -49 0
-54 -1 -5 -12 -12 -26 -15 -52 -13 -11 -26 81 -26 77 0 94 3 94 15 0 8 -3 14
-7 14 -40 -6 -41 -4 -40 144 l1 142 -71 3 c-39 2 -74 -2 -77 -7z"/>
<path d="M1073 1028 c2 -7 9 -12 15 -11 8 2 132 -266 132 -287 0 -11 28 -21
34 -12 2 4 27 62 55 130 59 140 71 162 88 162 7 0 13 7 13 15 0 12 -13 15 -55
15 -42 0 -55 -4 -55 -15 0 -9 6 -12 15 -9 26 11 29 -26 5 -84 -13 -32 -27 -61
-31 -66 -4 -5 -24 26 -44 69 -38 84 -39 86 -27 84 18 -3 32 2 32 11 0 6 -37
10 -91 10 -68 0 -90 -3 -86 -12z"/>
<path d="M2272 1028 c3 -7 13 -13 24 -13 18 0 19 -9 20 -125 1 -114 -5 -159
-20 -152 -15 6 -36 1 -31 -8 10 -17 180 -13 195 5 10 12 8 14 -9 10 -11 -2
-23 1 -27 6 -3 5 -6 73 -6 149 l-1 140 -74 0 c-55 0 -74 -3 -71 -12z"/>
</g>
</svg>
