<?xml version="1.0" standalone="no"?>
<!DOCTYPE svg PUBLIC "-//W3C//DTD SVG 20010904//EN"
 "http://www.w3.org/TR/2001/REC-SVG-20010904/DTD/svg10.dtd">
<svg version="1.0" xmlns="http://www.w3.org/2000/svg"
 width="1691.000000pt" height="1691.000000pt" viewBox="0 0 1691.000000 1691.000000"
 preserveAspectRatio="xMidYMid meet">
<metadata>
Created by potrace 1.14, written by Peter Selinger 2001-2017
</metadata>
<g transform="translate(0.000000,1691.000000) scale(0.100000,-0.100000)"
fill="#000000" stroke="none">
<path d="M5216 16858 c10 -65 11 -213 1 -291 -5 -47 -22 -134 -52 -268 -15
-68 -250 -786 -310 -948 -3 -9 -28 18 -65 70 -127 178 -216 285 -360 429 -327
328 -679 518 -1030 556 -30 3 -65 7 -77 9 -29 5 -29 4 6 -58 69 -125 117 -318
136 -547 11 -131 15 -251 20 -535 6 -335 13 -559 20 -630 3 -27 7 -77 10 -110
5 -72 13 -149 20 -190 3 -16 7 -48 10 -70 6 -42 23 -133 32 -175 4 -14 8 -34
10 -45 2 -11 13 -51 24 -89 11 -38 22 -76 24 -85 19 -94 144 -371 216 -478 16
-24 26 -43 23 -43 -2 0 -53 29 -112 64 -110 66 -141 83 -277 156 -44 23 -105
56 -135 73 l-55 30 78 -82 c173 -182 347 -449 598 -921 5 -8 24 -47 44 -87
l35 -72 -99 79 c-55 44 -102 80 -106 80 -3 0 -21 11 -38 23 -74 55 -257 131
-341 142 -28 4 -28 3 19 -42 148 -144 261 -323 358 -564 47 -119 108 -321 133
-444 26 -132 36 -198 58 -385 13 -108 15 -422 3 -480 -3 -14 -8 -46 -12 -72
-8 -58 -24 -65 -18 -7 6 46 -4 57 -75 89 -85 39 -200 18 -282 -50 -86 -70
-183 -237 -215 -370 -3 -8 -18 -69 -34 -135 -36 -148 -77 -374 -86 -475 -34
-386 -23 -639 41 -985 11 -62 64 -263 92 -350 60 -186 179 -452 293 -655 104
-184 343 -511 519 -711 91 -104 418 -431 520 -520 46 -41 96 -85 110 -97 49
-46 417 -339 530 -423 193 -143 400 -289 409 -289 5 0 11 -4 13 -9 2 -4 127
-90 278 -191 151 -100 300 -200 332 -221 31 -22 58 -39 61 -39 6 0 701 -461
707 -470 3 -3 28 -22 55 -40 28 -19 52 -37 53 -42 2 -4 8 -8 13 -8 7 0 336
-245 479 -358 160 -126 518 -428 654 -552 202 -184 526 -504 661 -651 78 -85
178 -198 202 -228 11 -14 25 -21 31 -17 29 18 86 182 172 496 39 144 50 181
54 200 12 45 82 254 103 305 37 89 161 333 198 390 18 28 42 68 53 90 10 22
49 96 85 165 105 199 188 424 213 575 3 17 7 36 9 43 17 50 25 278 13 388 -19
173 -104 401 -214 575 -13 21 -24 40 -24 43 0 2 -18 33 -40 67 -21 35 -53 87
-69 116 -34 58 -249 385 -333 506 -30 43 -59 85 -66 95 -6 9 -49 69 -94 132
-45 63 -100 142 -123 176 l-42 61 3 99 c5 159 15 386 18 424 2 19 7 82 11 140
3 58 8 114 10 125 2 11 7 52 10 90 3 39 7 81 10 95 2 14 6 48 10 75 3 28 11
82 16 120 6 39 12 81 14 95 2 14 7 41 10 60 4 19 9 46 11 60 3 14 9 48 15 76
5 28 12 64 15 80 9 53 73 305 99 393 47 157 108 323 161 439 13 29 24 56 24
60 0 4 7 15 14 24 12 17 15 16 43 -10 131 -120 223 -194 373 -299 286 -201
656 -383 1010 -498 63 -20 124 -39 135 -41 11 -2 31 -8 45 -13 28 -11 157 -43
230 -57 14 -3 32 -7 40 -9 8 -3 32 -7 54 -11 21 -3 48 -8 60 -10 11 -2 41 -7
66 -10 25 -3 53 -8 63 -10 24 -7 22 -3 -24 68 -75 116 -156 307 -174 408 -3
19 -10 51 -14 70 -4 20 -9 74 -10 120 l-2 85 47 -50 c26 -27 75 -79 108 -115
73 -77 197 -218 246 -279 19 -24 40 -48 45 -55 27 -28 166 -217 201 -271 47
-74 148 -277 204 -410 24 -55 50 -118 60 -140 9 -22 28 -68 41 -103 13 -34 28
-61 32 -59 24 8 214 411 312 662 55 141 151 416 147 422 -1 2 6 22 14 45 28
79 91 347 110 464 3 20 7 44 9 53 2 9 6 44 10 76 4 33 9 68 11 79 14 79 21
374 10 476 -18 170 -15 154 -32 235 -3 17 -21 93 -39 170 -28 120 -50 233 -61
310 -1 11 -5 34 -7 50 -19 110 -29 371 -18 460 l6 50 12 -40 c7 -22 42 -139
79 -260 36 -121 95 -308 130 -415 35 -107 64 -199 65 -205 0 -5 4 -14 9 -20 4
-5 11 -25 15 -43 13 -64 17 -51 85 273 33 158 36 176 50 260 5 33 12 71 14 85
11 59 35 229 41 280 3 30 8 66 10 80 20 119 39 469 39 685 -1 159 -10 368 -18
415 -2 14 -7 54 -11 90 -6 72 -23 182 -30 202 -2 7 -7 31 -10 53 -10 71 -64
272 -106 392 -113 324 -312 620 -521 775 -37 28 -68 54 -69 57 -18 201 -47
314 -120 471 -36 79 -63 94 -190 108 -80 9 -419 8 -504 -2 -22 -3 -69 -8 -105
-11 -36 -3 -121 -13 -190 -21 -69 -8 -145 -18 -170 -21 -25 -3 -65 -9 -90 -13
-52 -10 -63 -6 -50 18 30 56 36 255 10 312 l-11 25 -50 -48 c-124 -119 -400
-264 -706 -371 -299 -104 -912 -280 -1225 -352 -10 -2 -26 -6 -35 -8 -10 -2
-115 -27 -233 -55 -216 -50 -298 -69 -335 -77 -11 -2 -55 -11 -98 -20 -43 -8
-81 -14 -83 -11 -7 6 -6 126 1 160 28 139 122 262 285 373 150 103 442 209
740 269 36 7 126 19 133 17 22 -6 1 10 -37 27 -112 52 -387 58 -721 16 -70 -9
-202 -26 -227 -31 -16 -2 -43 -6 -60 -9 -18 -3 -69 -12 -113 -20 -44 -8 -95
-17 -113 -20 -18 -3 -64 -12 -102 -20 -38 -8 -84 -17 -102 -20 -18 -3 -56 -12
-85 -19 -60 -16 -64 -12 -56 50 6 56 48 137 98 192 24 26 42 48 41 49 -5 5
-134 -36 -221 -69 -288 -112 -590 -298 -862 -530 -54 -47 -94 -74 -98 -68 -19
31 -10 166 20 298 17 72 95 241 158 340 15 23 25 42 22 42 -7 0 -48 -23 -55
-30 -3 -3 -27 -19 -55 -35 -67 -38 -132 -85 -240 -171 -95 -76 -115 -94 -294
-266 -62 -59 -131 -121 -154 -137 -40 -27 -132 -81 -139 -81 -2 0 -3 10 -4 23
0 25 -12 123 -19 158 -3 13 -7 41 -10 64 -29 200 -100 493 -171 710 -52 156
-154 402 -193 465 -6 8 -34 58 -64 110 -178 309 -409 531 -706 675 l-53 26 8
-53z"/>
</g>
</svg>
